- 
http://www.Speed.Cd
 
http://www.Speed.Cd       the fast  and The Hottest Private Tracker on the net

Please Seed back to make the speed Faster!!
 ............ NFO .............
-[img]http://img694.imageshack.us/img694/9287/79794142733357814726.jpg[/img]

Oz.the.Great.and.Powerful.2013.720p.TS.XviD.MP3-UPSCAL3D
 
http://www.imdb.com/title/tt1623205/

Source...: Video..: Oz.Velikij.iUjasnij.2013.D.TS (upscaled)   Audio..: MiNiSTRY


Format                                   : AVI
Format/Info                              : Audio Video Interleave
Format profile                           : OpenDML
File size                                : 3.16 GiB
Duration                                 : 2h 4mn
Overall bit rate                         : 3 638 Kbps
Writing application                      : VirtualDubMod 1.5.10.2 (build 2540/release)
Writing library                          : VirtualDubMod build 2540/release

Video
ID                                       : 0
Format                                   : MPEG-4 Visual
Format profile                           : Advanced Simple@L5
Format settings, BVOP                    : 2
Format settings, QPel                    : No
Format settings, GMC                     : No warppoints
Format settings, Matrix                  : Default (H.263)
Codec ID                                 : XVID
Codec ID/Hint                            : XviD
Duration                                 : 2h 4mn
Bit rate                                 : 3 500 Kbps
Width                                    : 1 280 pixels
Height                                   : 456 pixels
Display aspect ratio                     : 2.807
Frame rate                               : 25.000 fps
Color space                              : YUV
Chroma subsampling                       : 4:2:0
Bit depth                                : 8 bits
Scan type                                : Progressive
Compression mode                         : Lossy
Bits/(Pixel*Frame)                       : 0.240
Stream size                              : 3.04 GiB (96%)
Writing library                          : XviD 1.2.1 (UTC 2008-12-04)

Audio
ID                                       : 1
Format                                   : MPEG Audio
Format version                           : Version 1
Format profile                           : Layer 3
Mode                                     : Joint stereo
Mode extension                           : MS Stereo
Codec ID                                 : 55
Codec ID/Hint                            : MP3
Duration                                 : 2h 4mn
Bit rate mode                            : Constant
Bit rate                                 : 128 Kbps
Channel(s)                               : 2 channels
Sampling rate                            : 48.0 KHz
Compression mode                         : Lossy
Stream size                              : 114 MiB (4%)
Alignment                                : Aligned on interleaves
Interleave, duration                     : 40 ms (1.00 video frame)
Interleave, preload duration             : 504 ms
Writing library                          : LAME3.98r
Encoding settings                        : -m j -V 4 -q 3 -lowpass 17 -b 128

[img]http://imageshack.us/a/img171/4926/80554938.png[/img]
[img]http://imageshack.us/a/img547/408/85048560.png[/img]
[img]http://imageshack.us/a/img831/8096/79436436.png[/img]
[img]http://imageshack.us/a/img405/9722/57484132.png[/img]

NOTES.....: was bored, decided to upscale it, turned out better than expect... dont like , dont grab and then there will be no complaints
PS... Bigger is Always Better